<?xml version="1.0" encoding="utf-8" standalone="no"?>
<!DOCTYPE svg PUBLIC "-//W3C//DTD SVG 1.1//EN"
  "http://www.w3.org/Graphics/SVG/1.1/DTD/svg11.dtd">
<svg xmlns:xlink="http://www.w3.org/1999/xlink" width="518.4pt" height="288pt" viewBox="0 0 518.4 288" xmlns="http://www.w3.org/2000/svg" version="1.1">
 <metadata>
  <rdf:RDF xmlns:dc="http://purl.org/dc/elements/1.1/" xmlns:cc="http://creativecommons.org/ns#" xmlns:rdf="http://www.w3.org/1999/02/22-rdf-syntax-ns#">
   <cc:Work>
    <dc:type rdf:resource="http://purl.org/dc/dcmitype/StillImage"/>
    <dc:date>1980-01-01T00:00:00+00:00</dc:date>
    <dc:format>image/svg+xml</dc:format>
    <dc:creator>
     <cc:Agent>
      <dc:title>Matplotlib v3.10.0, https://matplotlib.org/</dc:title>
     </cc:Agent>
    </dc:creator>
   </cc:Work>
  </rdf:RDF>
 </metadata>
 <defs>
  <style type="text/css">*{stroke-linejoin: round; stroke-linecap: butt}</style>
 </defs>
 <g id="figure_1">
  <g id="patch_1">
   <path d="M 0 288 
L 518.4 288 
L 518.4 0 
L 0 0 
z
" style="fill: #ffffff"/>
  </g>
  <g id="axes_1">
   <g id="patch_2">
    <path d="M 53.46 237.78 
L 505.44 237.78 
L 505.44 12.96 
L 53.46 12.96 
z
" style="fill: #ffffff"/>
   </g>
   <g id="matplotlib.axis_1">
    <g id="xtick_1">
     <g id="line2d_1">
      <defs>
       <path id="m2aad22f1d2" d="M 0 0 
L 0 6 
" style="stroke: #262626; stroke-width: 1.25"/>
      </defs>
      <g>
       <use xlink:href="#m2aad22f1d2" x="74.004545" y="237.78" style="fill: #262626; stroke: #262626; stroke-width: 1.25"/>
      </g>
     </g>
     <g id="text_1">
      <!-- 2012 -->
      <g style="fill: #262626" transform="translate(60.007045 255.638281) scale(0.11 -0.11)">
       <defs>
        <path id="DejaVuSans-32" d="M 1228 531 
L 3431 531 
L 3431 0 
L 469 0 
L 469 531 
Q 828 903 1448 1529 
Q 2069 2156 2228 2338 
Q 2531 2678 2651 2914 
Q 2772 3150 2772 3378 
Q 2772 3750 2511 3984 
Q 2250 4219 1831 4219 
Q 1534 4219 1204 4116 
Q 875 4013 500 3803 
L 500 4441 
Q 881 4594 1212 4672 
Q 1544 4750 1819 4750 
Q 2544 4750 2975 4387 
Q 3406 4025 3406 3419 
Q 3406 3131 3298 2873 
Q 3191 2616 2906 2266 
Q 2828 2175 2409 1742 
Q 1991 1309 1228 531 
z
" transform="scale(0.015625)"/>
        <path id="DejaVuSans-30" d="M 2034 4250 
Q 1547 4250 1301 3770 
Q 1056 3291 1056 2328 
Q 1056 1369 1301 889 
Q 1547 409 2034 409 
Q 2525 409 2770 889 
Q 3016 1369 3016 2328 
Q 3016 3291 2770 3770 
Q 2525 4250 2034 4250 
z
M 2034 4750 
Q 2819 4750 3233 4129 
Q 3647 3509 3647 2328 
Q 3647 1150 3233 529 
Q 2819 -91 2034 -91 
Q 1250 -91 836 529 
Q 422 1150 422 2328 
Q 422 3509 836 4129 
Q 1250 4750 2034 4750 
z
" transform="scale(0.015625)"/>
        <path id="DejaVuSans-31" d="M 794 531 
L 1825 531 
L 1825 4091 
L 703 3866 
L 703 4441 
L 1819 4666 
L 2450 4666 
L 2450 531 
L 3481 531 
L 3481 0 
L 794 0 
L 794 531 
z
" transform="scale(0.015625)"/>
       </defs>
       <use xlink:href="#DejaVuSans-32"/>
       <use xlink:href="#DejaVuSans-30" transform="translate(63.623047 0)"/>
       <use xlink:href="#DejaVuSans-31" transform="translate(127.246094 0)"/>
       <use xlink:href="#DejaVuSans-32" transform="translate(190.869141 0)"/>
      </g>
     </g>
    </g>
    <g id="xtick_2">
     <g id="line2d_2">
      <g>
       <use xlink:href="#m2aad22f1d2" x="142.486364" y="237.78" style="fill: #262626; stroke: #262626; stroke-width: 1.25"/>
      </g>
     </g>
     <g id="text_2">
      <!-- 2014 -->
      <g style="fill: #262626" transform="translate(128.488864 255.638281) scale(0.11 -0.11)">
       <defs>
        <path id="DejaVuSans-34" d="M 2419 4116 
L 825 1625 
L 2419 1625 
L 2419 4116 
z
M 2253 4666 
L 3047 4666 
L 3047 1625 
L 3713 1625 
L 3713 1100 
L 3047 1100 
L 3047 0 
L 2419 0 
L 2419 1100 
L 313 1100 
L 313 1709 
L 2253 4666 
z
" transform="scale(0.015625)"/>
       </defs>
       <use xlink:href="#DejaVuSans-32"/>
       <use xlink:href="#DejaVuSans-30" transform="translate(63.623047 0)"/>
       <use xlink:href="#DejaVuSans-31" transform="translate(127.246094 0)"/>
       <use xlink:href="#DejaVuSans-34" transform="translate(190.869141 0)"/>
      </g>
     </g>
    </g>
    <g id="xtick_3">
     <g id="line2d_3">
      <g>
       <use xlink:href="#m2aad22f1d2" x="210.968182" y="237.78" style="fill: #262626; stroke: #262626; stroke-width: 1.25"/>
      </g>
     </g>
     <g id="text_3">
      <!-- 2016 -->
      <g style="fill: #262626" transform="translate(196.970682 255.638281) scale(0.11 -0.11)">
       <defs>
        <path id="DejaVuSans-36" d="M 2113 2584 
Q 1688 2584 1439 2293 
Q 1191 2003 1191 1497 
Q 1191 994 1439 701 
Q 1688 409 2113 409 
Q 2538 409 2786 701 
Q 3034 994 3034 1497 
Q 3034 2003 2786 2293 
Q 2538 2584 2113 2584 
z
M 3366 4563 
L 3366 3988 
Q 3128 4100 2886 4159 
Q 2644 4219 2406 4219 
Q 1781 4219 1451 3797 
Q 1122 3375 1075 2522 
Q 1259 2794 1537 2939 
Q 1816 3084 2150 3084 
Q 2853 3084 3261 2657 
Q 3669 2231 3669 1497 
Q 3669 778 3244 343 
Q 2819 -91 2113 -91 
Q 1303 -91 875 529 
Q 447 1150 447 2328 
Q 447 3434 972 4092 
Q 1497 4750 2381 4750 
Q 2619 4750 2861 4703 
Q 3103 4656 3366 4563 
z
" transform="scale(0.015625)"/>
       </defs>
       <use xlink:href="#DejaVuSans-32"/>
       <use xlink:href="#DejaVuSans-30" transform="translate(63.623047 0)"/>
       <use xlink:href="#DejaVuSans-31" transform="translate(127.246094 0)"/>
       <use xlink:href="#DejaVuSans-36" transform="translate(190.869141 0)"/>
      </g>
     </g>
    </g>
    <g id="xtick_4">
     <g id="line2d_4">
      <g>
       <use xlink:href="#m2aad22f1d2" x="279.45" y="237.78" style="fill: #262626; stroke: #262626; stroke-width: 1.25"/>
      </g>
     </g>
     <g id="text_4">
      <!-- 2018 -->
      <g style="fill: #262626" transform="translate(265.4525 255.638281) scale(0.11 -0.11)">
       <defs>
        <path id="DejaVuSans-38" d="M 2034 2216 
Q 1584 2216 1326 1975 
Q 1069 1734 1069 1313 
Q 1069 891 1326 650 
Q 1584 409 2034 409 
Q 2484 409 2743 651 
Q 3003 894 3003 1313 
Q 3003 1734 2745 1975 
Q 2488 2216 2034 2216 
z
M 1403 2484 
Q 997 2584 770 2862 
Q 544 3141 544 3541 
Q 544 4100 942 4425 
Q 1341 4750 2034 4750 
Q 2731 4750 3128 4425 
Q 3525 4100 3525 3541 
Q 3525 3141 3298 2862 
Q 3072 2584 2669 2484 
Q 3125 2378 3379 2068 
Q 3634 1759 3634 1313 
Q 3634 634 3220 271 
Q 2806 -91 2034 -91 
Q 1263 -91 848 271 
Q 434 634 434 1313 
Q 434 1759 690 2068 
Q 947 2378 1403 2484 
z
M 1172 3481 
Q 1172 3119 1398 2916 
Q 1625 2713 2034 2713 
Q 2441 2713 2670 2916 
Q 2900 3119 2900 3481 
Q 2900 3844 2670 4047 
Q 2441 4250 2034 4250 
Q 1625 4250 1398 4047 
Q 1172 3844 1172 3481 
z
" transform="scale(0.015625)"/>
       </defs>
       <use xlink:href="#DejaVuSans-32"/>
       <use xlink:href="#DejaVuSans-30" transform="translate(63.623047 0)"/>
       <use xlink:href="#DejaVuSans-31" transform="translate(127.246094 0)"/>
       <use xlink:href="#DejaVuSans-38" transform="translate(190.869141 0)"/>
      </g>
     </g>
    </g>
    <g id="xtick_5">
     <g id="line2d_5">
      <g>
       <use xlink:href="#m2aad22f1d2" x="347.931818" y="237.78" style="fill: #262626; stroke: #262626; stroke-width: 1.25"/>
      </g>
     </g>
     <g id="text_5">
      <!-- 2020 -->
      <g style="fill: #262626" transform="translate(333.934318 255.638281) scale(0.11 -0.11)">
       <use xlink:href="#DejaVuSans-32"/>
       <use xlink:href="#DejaVuSans-30" transform="translate(63.623047 0)"/>
       <use xlink:href="#DejaVuSans-32" transform="translate(127.246094 0)"/>
       <use xlink:href="#DejaVuSans-30" transform="translate(190.869141 0)"/>
      </g>
     </g>
    </g>
    <g id="xtick_6">
     <g id="line2d_6">
      <g>
       <use xlink:href="#m2aad22f1d2" x="416.413636" y="237.78" style="fill: #262626; stroke: #262626; stroke-width: 1.25"/>
      </g>
     </g>
     <g id="text_6">
      <!-- 2022 -->
      <g style="fill: #262626" transform="translate(402.416136 255.638281) scale(0.11 -0.11)">
       <use xlink:href="#DejaVuSans-32"/>
       <use xlink:href="#DejaVuSans-30" transform="translate(63.623047 0)"/>
       <use xlink:href="#DejaVuSans-32" transform="translate(127.246094 0)"/>
       <use xlink:href="#DejaVuSans-32" transform="translate(190.869141 0)"/>
      </g>
     </g>
    </g>
    <g id="xtick_7">
     <g id="line2d_7">
      <g>
       <use xlink:href="#m2aad22f1d2" x="484.895455" y="237.78" style="fill: #262626; stroke: #262626; stroke-width: 1.25"/>
      </g>
     </g>
     <g id="text_7">
      <!-- 2024 -->
      <g style="fill: #262626" transform="translate(470.897955 255.638281) scale(0.11 -0.11)">
       <use xlink:href="#DejaVuSans-32"/>
       <use xlink:href="#DejaVuSans-30" transform="translate(63.623047 0)"/>
       <use xlink:href="#DejaVuSans-32" transform="translate(127.246094 0)"/>
       <use xlink:href="#DejaVuSans-34" transform="translate(190.869141 0)"/>
      </g>
     </g>
    </g>
    <g id="text_8">
     <!-- Year -->
     <g style="fill: #262626" transform="translate(266.745 271.044062) scale(0.12 -0.12)">
      <defs>
       <path id="DejaVuSans-59" d="M -13 4666 
L 666 4666 
L 1959 2747 
L 3244 4666 
L 3922 4666 
L 2272 2222 
L 2272 0 
L 1638 0 
L 1638 2222 
L -13 4666 
z
" transform="scale(0.015625)"/>
       <path id="DejaVuSans-65" d="M 3597 1894 
L 3597 1613 
L 953 1613 
Q 991 1019 1311 708 
Q 1631 397 2203 397 
Q 2534 397 2845 478 
Q 3156 559 3463 722 
L 3463 178 
Q 3153 47 2828 -22 
Q 2503 -91 2169 -91 
Q 1331 -91 842 396 
Q 353 884 353 1716 
Q 353 2575 817 3079 
Q 1281 3584 2069 3584 
Q 2775 3584 3186 3129 
Q 3597 2675 3597 1894 
z
M 3022 2063 
Q 3016 2534 2758 2815 
Q 2500 3097 2075 3097 
Q 1594 3097 1305 2825 
Q 1016 2553 972 2059 
L 3022 2063 
z
" transform="scale(0.015625)"/>
       <path id="DejaVuSans-61" d="M 2194 1759 
Q 1497 1759 1228 1600 
Q 959 1441 959 1056 
Q 959 750 1161 570 
Q 1363 391 1709 391 
Q 2188 391 2477 730 
Q 2766 1069 2766 1631 
L 2766 1759 
L 2194 1759 
z
M 3341 1997 
L 3341 0 
L 2766 0 
L 2766 531 
Q 2569 213 2275 61 
Q 1981 -91 1556 -91 
Q 1019 -91 701 211 
Q 384 513 384 1019 
Q 384 1609 779 1909 
Q 1175 2209 1959 2209 
L 2766 2209 
L 2766 2266 
Q 2766 2663 2505 2880 
Q 2244 3097 1772 3097 
Q 1472 3097 1187 3025 
Q 903 2953 641 2809 
L 641 3341 
Q 956 3463 1253 3523 
Q 1550 3584 1831 3584 
Q 2591 3584 2966 3190 
Q 3341 2797 3341 1997 
z
" transform="scale(0.015625)"/>
       <path id="DejaVuSans-72" d="M 2631 2963 
Q 2534 3019 2420 3045 
Q 2306 3072 2169 3072 
Q 1681 3072 1420 2755 
Q 1159 2438 1159 1844 
L 1159 0 
L 581 0 
L 581 3500 
L 1159 3500 
L 1159 2956 
Q 1341 3275 1631 3429 
Q 1922 3584 2338 3584 
Q 2397 3584 2469 3576 
Q 2541 3569 2628 3553 
L 2631 2963 
z
" transform="scale(0.015625)"/>
      </defs>
      <use xlink:href="#DejaVuSans-59"/>
      <use xlink:href="#DejaVuSans-65" transform="translate(47.833984 0)"/>
      <use xlink:href="#DejaVuSans-61" transform="translate(109.357422 0)"/>
      <use xlink:href="#DejaVuSans-72" transform="translate(170.636719 0)"/>
     </g>
    </g>
   </g>
   <g id="matplotlib.axis_2">
    <g id="ytick_1">
     <g id="line2d_8">
      <defs>
       <path id="md9117b6be2" d="M 0 0 
L -6 0 
" style="stroke: #262626; stroke-width: 1.25"/>
      </defs>
      <g>
       <use xlink:href="#md9117b6be2" x="53.46" y="228.670279" style="fill: #262626; stroke: #262626; stroke-width: 1.25"/>
      </g>
     </g>
     <g id="text_9">
      <!-- 24 -->
      <g style="fill: #262626" transform="translate(29.9625 232.84942) scale(0.11 -0.11)">
       <use xlink:href="#DejaVuSans-32"/>
       <use xlink:href="#DejaVuSans-34" transform="translate(63.623047 0)"/>
      </g>
     </g>
    </g>
    <g id="ytick_2">
     <g id="line2d_9">
      <g>
       <use xlink:href="#md9117b6be2" x="53.46" y="198.533436" style="fill: #262626; stroke: #262626; stroke-width: 1.25"/>
      </g>
     </g>
     <g id="text_10">
      <!-- 26 -->
      <g style="fill: #262626" transform="translate(29.9625 202.712576) scale(0.11 -0.11)">
       <use xlink:href="#DejaVuSans-32"/>
       <use xlink:href="#DejaVuSans-36" transform="translate(63.623047 0)"/>
      </g>
     </g>
    </g>
    <g id="ytick_3">
     <g id="line2d_10">
      <g>
       <use xlink:href="#md9117b6be2" x="53.46" y="168.396593" style="fill: #262626; stroke: #262626; stroke-width: 1.25"/>
      </g>
     </g>
     <g id="text_11">
      <!-- 28 -->
      <g style="fill: #262626" transform="translate(29.9625 172.575733) scale(0.11 -0.11)">
       <use xlink:href="#DejaVuSans-32"/>
       <use xlink:href="#DejaVuSans-38" transform="translate(63.623047 0)"/>
      </g>
     </g>
    </g>
    <g id="ytick_4">
     <g id="line2d_11">
      <g>
       <use xlink:href="#md9117b6be2" x="53.46" y="138.25975" style="fill: #262626; stroke: #262626; stroke-width: 1.25"/>
      </g>
     </g>
     <g id="text_12">
      <!-- 30 -->
      <g style="fill: #262626" transform="translate(29.9625 142.43889) scale(0.11 -0.11)">
       <defs>
        <path id="DejaVuSans-33" d="M 2597 2516 
Q 3050 2419 3304 2112 
Q 3559 1806 3559 1356 
Q 3559 666 3084 287 
Q 2609 -91 1734 -91 
Q 1441 -91 1130 -33 
Q 819 25 488 141 
L 488 750 
Q 750 597 1062 519 
Q 1375 441 1716 441 
Q 2309 441 2620 675 
Q 2931 909 2931 1356 
Q 2931 1769 2642 2001 
Q 2353 2234 1838 2234 
L 1294 2234 
L 1294 2753 
L 1863 2753 
Q 2328 2753 2575 2939 
Q 2822 3125 2822 3475 
Q 2822 3834 2567 4026 
Q 2313 4219 1838 4219 
Q 1578 4219 1281 4162 
Q 984 4106 628 3988 
L 628 4550 
Q 988 4650 1302 4700 
Q 1616 4750 1894 4750 
Q 2613 4750 3031 4423 
Q 3450 4097 3450 3541 
Q 3450 3153 3228 2886 
Q 3006 2619 2597 2516 
z
" transform="scale(0.015625)"/>
       </defs>
       <use xlink:href="#DejaVuSans-33"/>
       <use xlink:href="#DejaVuSans-30" transform="translate(63.623047 0)"/>
      </g>
     </g>
    </g>
    <g id="ytick_5">
     <g id="line2d_12">
      <g>
       <use xlink:href="#md9117b6be2" x="53.46" y="108.122907" style="fill: #262626; stroke: #262626; stroke-width: 1.25"/>
      </g>
     </g>
     <g id="text_13">
      <!-- 32 -->
      <g style="fill: #262626" transform="translate(29.9625 112.302047) scale(0.11 -0.11)">
       <use xlink:href="#DejaVuSans-33"/>
       <use xlink:href="#DejaVuSans-32" transform="translate(63.623047 0)"/>
      </g>
     </g>
    </g>
    <g id="ytick_6">
     <g id="line2d_13">
      <g>
       <use xlink:href="#md9117b6be2" x="53.46" y="77.986063" style="fill: #262626; stroke: #262626; stroke-width: 1.25"/>
      </g>
     </g>
     <g id="text_14">
      <!-- 34 -->
      <g style="fill: #262626" transform="translate(29.9625 82.165204) scale(0.11 -0.11)">
       <use xlink:href="#DejaVuSans-33"/>
       <use xlink:href="#DejaVuSans-34" transform="translate(63.623047 0)"/>
      </g>
     </g>
    </g>
    <g id="ytick_7">
     <g id="line2d_14">
      <g>
       <use xlink:href="#md9117b6be2" x="53.46" y="47.84922" style="fill: #262626; stroke: #262626; stroke-width: 1.25"/>
      </g>
     </g>
     <g id="text_15">
      <!-- 36 -->
      <g style="fill: #262626" transform="translate(29.9625 52.028361) scale(0.11 -0.11)">
       <use xlink:href="#DejaVuSans-33"/>
       <use xlink:href="#DejaVuSans-36" transform="translate(63.623047 0)"/>
      </g>
     </g>
    </g>
    <g id="ytick_8">
     <g id="line2d_15">
      <g>
       <use xlink:href="#md9117b6be2" x="53.46" y="17.712377" style="fill: #262626; stroke: #262626; stroke-width: 1.25"/>
      </g>
     </g>
     <g id="text_16">
      <!-- 38 -->
      <g style="fill: #262626" transform="translate(29.9625 21.891518) scale(0.11 -0.11)">
       <use xlink:href="#DejaVuSans-33"/>
       <use xlink:href="#DejaVuSans-38" transform="translate(63.623047 0)"/>
      </g>
     </g>
    </g>
    <g id="text_17">
     <!-- Average talk length (minutes) -->
     <g style="fill: #262626" transform="translate(23.466875 214.993125) rotate(-90) scale(0.12 -0.12)">
      <defs>
       <path id="DejaVuSans-41" d="M 2188 4044 
L 1331 1722 
L 3047 1722 
L 2188 4044 
z
M 1831 4666 
L 2547 4666 
L 4325 0 
L 3669 0 
L 3244 1197 
L 1141 1197 
L 716 0 
L 50 0 
L 1831 4666 
z
" transform="scale(0.015625)"/>
       <path id="DejaVuSans-76" d="M 191 3500 
L 800 3500 
L 1894 563 
L 2988 3500 
L 3597 3500 
L 2284 0 
L 1503 0 
L 191 3500 
z
" transform="scale(0.015625)"/>
       <path id="DejaVuSans-67" d="M 2906 1791 
Q 2906 2416 2648 2759 
Q 2391 3103 1925 3103 
Q 1463 3103 1205 2759 
Q 947 2416 947 1791 
Q 947 1169 1205 825 
Q 1463 481 1925 481 
Q 2391 481 2648 825 
Q 2906 1169 2906 1791 
z
M 3481 434 
Q 3481 -459 3084 -895 
Q 2688 -1331 1869 -1331 
Q 1566 -1331 1297 -1286 
Q 1028 -1241 775 -1147 
L 775 -588 
Q 1028 -725 1275 -790 
Q 1522 -856 1778 -856 
Q 2344 -856 2625 -561 
Q 2906 -266 2906 331 
L 2906 616 
Q 2728 306 2450 153 
Q 2172 0 1784 0 
Q 1141 0 747 490 
Q 353 981 353 1791 
Q 353 2603 747 3093 
Q 1141 3584 1784 3584 
Q 2172 3584 2450 3431 
Q 2728 3278 2906 2969 
L 2906 3500 
L 3481 3500 
L 3481 434 
z
" transform="scale(0.015625)"/>
       <path id="DejaVuSans-20" transform="scale(0.015625)"/>
       <path id="DejaVuSans-74" d="M 1172 4494 
L 1172 3500 
L 2356 3500 
L 2356 3053 
L 1172 3053 
L 1172 1153 
Q 1172 725 1289 603 
Q 1406 481 1766 481 
L 2356 481 
L 2356 0 
L 1766 0 
Q 1100 0 847 248 
Q 594 497 594 1153 
L 594 3053 
L 172 3053 
L 172 3500 
L 594 3500 
L 594 4494 
L 1172 4494 
z
" transform="scale(0.015625)"/>
       <path id="DejaVuSans-6c" d="M 603 4863 
L 1178 4863 
L 1178 0 
L 603 0 
L 603 4863 
z
" transform="scale(0.015625)"/>
       <path id="DejaVuSans-6b" d="M 581 4863 
L 1159 4863 
L 1159 1991 
L 2875 3500 
L 3609 3500 
L 1753 1863 
L 3688 0 
L 2938 0 
L 1159 1709 
L 1159 0 
L 581 0 
L 581 4863 
z
" transform="scale(0.015625)"/>
       <path id="DejaVuSans-6e" d="M 3513 2113 
L 3513 0 
L 2938 0 
L 2938 2094 
Q 2938 2591 2744 2837 
Q 2550 3084 2163 3084 
Q 1697 3084 1428 2787 
Q 1159 2491 1159 1978 
L 1159 0 
L 581 0 
L 581 3500 
L 1159 3500 
L 1159 2956 
Q 1366 3272 1645 3428 
Q 1925 3584 2291 3584 
Q 2894 3584 3203 3211 
Q 3513 2838 3513 2113 
z
" transform="scale(0.015625)"/>
       <path id="DejaVuSans-68" d="M 3513 2113 
L 3513 0 
L 2938 0 
L 2938 2094 
Q 2938 2591 2744 2837 
Q 2550 3084 2163 3084 
Q 1697 3084 1428 2787 
Q 1159 2491 1159 1978 
L 1159 0 
L 581 0 
L 581 4863 
L 1159 4863 
L 1159 2956 
Q 1366 3272 1645 3428 
Q 1925 3584 2291 3584 
Q 2894 3584 3203 3211 
Q 3513 2838 3513 2113 
z
" transform="scale(0.015625)"/>
       <path id="DejaVuSans-28" d="M 1984 4856 
Q 1566 4138 1362 3434 
Q 1159 2731 1159 2009 
Q 1159 1288 1364 580 
Q 1569 -128 1984 -844 
L 1484 -844 
Q 1016 -109 783 600 
Q 550 1309 550 2009 
Q 550 2706 781 3412 
Q 1013 4119 1484 4856 
L 1984 4856 
z
" transform="scale(0.015625)"/>
       <path id="DejaVuSans-6d" d="M 3328 2828 
Q 3544 3216 3844 3400 
Q 4144 3584 4550 3584 
Q 5097 3584 5394 3201 
Q 5691 2819 5691 2113 
L 5691 0 
L 5113 0 
L 5113 2094 
Q 5113 2597 4934 2840 
Q 4756 3084 4391 3084 
Q 3944 3084 3684 2787 
Q 3425 2491 3425 1978 
L 3425 0 
L 2847 0 
L 2847 2094 
Q 2847 2600 2669 2842 
Q 2491 3084 2119 3084 
Q 1678 3084 1418 2786 
Q 1159 2488 1159 1978 
L 1159 0 
L 581 0 
L 581 3500 
L 1159 3500 
L 1159 2956 
Q 1356 3278 1631 3431 
Q 1906 3584 2284 3584 
Q 2666 3584 2933 3390 
Q 3200 3197 3328 2828 
z
" transform="scale(0.015625)"/>
       <path id="DejaVuSans-69" d="M 603 3500 
L 1178 3500 
L 1178 0 
L 603 0 
L 603 3500 
z
M 603 4863 
L 1178 4863 
L 1178 4134 
L 603 4134 
L 603 4863 
z
" transform="scale(0.015625)"/>
       <path id="DejaVuSans-75" d="M 544 1381 
L 544 3500 
L 1119 3500 
L 1119 1403 
Q 1119 906 1312 657 
Q 1506 409 1894 409 
Q 2359 409 2629 706 
Q 2900 1003 2900 1516 
L 2900 3500 
L 3475 3500 
L 3475 0 
L 2900 0 
L 2900 538 
Q 2691 219 2414 64 
Q 2138 -91 1772 -91 
Q 1169 -91 856 284 
Q 544 659 544 1381 
z
M 1991 3584 
L 1991 3584 
z
" transform="scale(0.015625)"/>
       <path id="DejaVuSans-73" d="M 2834 3397 
L 2834 2853 
Q 2591 2978 2328 3040 
Q 2066 3103 1784 3103 
Q 1356 3103 1142 2972 
Q 928 2841 928 2578 
Q 928 2378 1081 2264 
Q 1234 2150 1697 2047 
L 1894 2003 
Q 2506 1872 2764 1633 
Q 3022 1394 3022 966 
Q 3022 478 2636 193 
Q 2250 -91 1575 -91 
Q 1294 -91 989 -36 
Q 684 19 347 128 
L 347 722 
Q 666 556 975 473 
Q 1284 391 1588 391 
Q 1994 391 2212 530 
Q 2431 669 2431 922 
Q 2431 1156 2273 1281 
Q 2116 1406 1581 1522 
L 1381 1569 
Q 847 1681 609 1914 
Q 372 2147 372 2553 
Q 372 3047 722 3315 
Q 1072 3584 1716 3584 
Q 2034 3584 2315 3537 
Q 2597 3491 2834 3397 
z
" transform="scale(0.015625)"/>
       <path id="DejaVuSans-29" d="M 513 4856 
L 1013 4856 
Q 1481 4119 1714 3412 
Q 1947 2706 1947 2009 
Q 1947 1309 1714 600 
Q 1481 -109 1013 -844 
L 513 -844 
Q 928 -128 1133 580 
Q 1338 1288 1338 2009 
Q 1338 2731 1133 3434 
Q 928 4138 513 4856 
z
" transform="scale(0.015625)"/>
      </defs>
      <use xlink:href="#DejaVuSans-41"/>
      <use xlink:href="#DejaVuSans-76" transform="translate(62.533203 0)"/>
      <use xlink:href="#DejaVuSans-65" transform="translate(121.712891 0)"/>
      <use xlink:href="#DejaVuSans-72" transform="translate(183.236328 0)"/>
      <use xlink:href="#DejaVuSans-61" transform="translate(224.349609 0)"/>
      <use xlink:href="#DejaVuSans-67" transform="translate(285.628906 0)"/>
      <use xlink:href="#DejaVuSans-65" transform="translate(349.105469 0)"/>
      <use xlink:href="#DejaVuSans-20" transform="translate(410.628906 0)"/>
      <use xlink:href="#DejaVuSans-74" transform="translate(442.416016 0)"/>
      <use xlink:href="#DejaVuSans-61" transform="translate(481.625 0)"/>
      <use xlink:href="#DejaVuSans-6c" transform="translate(542.904297 0)"/>
      <use xlink:href="#DejaVuSans-6b" transform="translate(570.6875 0)"/>
      <use xlink:href="#DejaVuSans-20" transform="translate(628.597656 0)"/>
      <use xlink:href="#DejaVuSans-6c" transform="translate(660.384766 0)"/>
      <use xlink:href="#DejaVuSans-65" transform="translate(688.167969 0)"/>
      <use xlink:href="#DejaVuSans-6e" transform="translate(749.691406 0)"/>
      <use xlink:href="#DejaVuSans-67" transform="translate(813.070312 0)"/>
      <use xlink:href="#DejaVuSans-74" transform="translate(876.546875 0)"/>
      <use xlink:href="#DejaVuSans-68" transform="translate(915.755859 0)"/>
      <use xlink:href="#DejaVuSans-20" transform="translate(979.134766 0)"/>
      <use xlink:href="#DejaVuSans-28" transform="translate(1010.921875 0)"/>
      <use xlink:href="#DejaVuSans-6d" transform="translate(1049.935547 0)"/>
      <use xlink:href="#DejaVuSans-69" transform="translate(1147.347656 0)"/>
      <use xlink:href="#DejaVuSans-6e" transform="translate(1175.130859 0)"/>
      <use xlink:href="#DejaVuSans-75" transform="translate(1238.509766 0)"/>
      <use xlink:href="#DejaVuSans-74" transform="translate(1301.888672 0)"/>
      <use xlink:href="#DejaVuSans-65" transform="translate(1341.097656 0)"/>
      <use xlink:href="#DejaVuSans-73" transform="translate(1402.621094 0)"/>
      <use xlink:href="#DejaVuSans-29" transform="translate(1454.720703 0)"/>
     </g>
    </g>
   </g>
   <g id="PathCollection_1">
    <defs>
     <path id="mf74eb2e5b3" d="M 0 3 
C 0.795609 3 1.55874 2.683901 2.12132 2.12132 
C 2.683901 1.55874 3 0.795609 3 0 
C 3 -0.795609 2.683901 -1.55874 2.12132 -2.12132 
C 1.55874 -2.683901 0.795609 -3 0 -3 
C -0.795609 -3 -1.55874 -2.683901 -2.12132 -2.12132 
C -2.683901 -1.55874 -3 -0.795609 -3 0 
C -3 0.795609 -2.683901 1.55874 -2.12132 2.12132 
C -1.55874 2.683901 -0.795609 3 0 3 
z
" style="stroke: #4c72b0; stroke-opacity: 0.8"/>
    </defs>
    <g clip-path="url(#p9501724b67)">
     <use xlink:href="#mf74eb2e5b3" x="484.895455" y="186.361461" style="fill: #4c72b0; fill-opacity: 0.8; stroke: #4c72b0; stroke-opacity: 0.8"/>
     <use xlink:href="#mf74eb2e5b3" x="450.654545" y="190.427129" style="fill: #4c72b0; fill-opacity: 0.8; stroke: #4c72b0; stroke-opacity: 0.8"/>
     <use xlink:href="#mf74eb2e5b3" x="347.931818" y="151.974096" style="fill: #4c72b0; fill-opacity: 0.8; stroke: #4c72b0; stroke-opacity: 0.8"/>
     <use xlink:href="#mf74eb2e5b3" x="313.690909" y="130.745058" style="fill: #4c72b0; fill-opacity: 0.8; stroke: #4c72b0; stroke-opacity: 0.8"/>
     <use xlink:href="#mf74eb2e5b3" x="279.45" y="130.890522" style="fill: #4c72b0; fill-opacity: 0.8; stroke: #4c72b0; stroke-opacity: 0.8"/>
     <use xlink:href="#mf74eb2e5b3" x="245.209091" y="109.638799" style="fill: #4c72b0; fill-opacity: 0.8; stroke: #4c72b0; stroke-opacity: 0.8"/>
     <use xlink:href="#mf74eb2e5b3" x="210.968182" y="114.493296" style="fill: #4c72b0; fill-opacity: 0.8; stroke: #4c72b0; stroke-opacity: 0.8"/>
     <use xlink:href="#mf74eb2e5b3" x="176.727273" y="79.873035" style="fill: #4c72b0; fill-opacity: 0.8; stroke: #4c72b0; stroke-opacity: 0.8"/>
     <use xlink:href="#mf74eb2e5b3" x="142.486364" y="62.036448" style="fill: #4c72b0; fill-opacity: 0.8; stroke: #4c72b0; stroke-opacity: 0.8"/>
     <use xlink:href="#mf74eb2e5b3" x="108.245455" y="55.631471" style="fill: #4c72b0; fill-opacity: 0.8; stroke: #4c72b0; stroke-opacity: 0.8"/>
     <use xlink:href="#mf74eb2e5b3" x="74.004545" y="28.078353" style="fill: #4c72b0; fill-opacity: 0.8; stroke: #4c72b0; stroke-opacity: 0.8"/>
    </g>
   </g>
   <g id="FillBetweenPolyCollection_1">
    <defs>
     <path id="m5d91158254" d="M 53.46 -264.820909 
L 53.46 -239.283987 
L 58.025455 -237.726093 
L 62.590909 -236.168199 
L 67.156364 -234.610304 
L 71.721818 -233.05241 
L 76.287273 -231.494516 
L 80.852727 -229.952974 
L 85.418182 -228.478043 
L 89.983636 -226.939043 
L 94.549091 -225.363665 
L 99.114545 -223.838704 
L 103.68 -222.314913 
L 108.245455 -220.781564 
L 112.810909 -219.221577 
L 117.376364 -217.66159 
L 121.941818 -216.055089 
L 126.507273 -214.49298 
L 131.072727 -212.91443 
L 135.638182 -211.302219 
L 140.203636 -209.690009 
L 144.769091 -208.150574 
L 149.334545 -206.657291 
L 153.9 -205.164008 
L 158.465455 -203.615528 
L 163.030909 -202.055628 
L 167.596364 -200.430606 
L 172.161818 -198.935679 
L 176.727273 -197.347791 
L 181.292727 -195.812938 
L 185.858182 -194.256137 
L 190.423636 -192.788179 
L 194.989091 -191.247008 
L 199.554545 -189.619695 
L 204.12 -188.007494 
L 208.685455 -186.304614 
L 213.250909 -184.743886 
L 217.816364 -183.112652 
L 222.381818 -181.372173 
L 226.947273 -179.653819 
L 231.512727 -177.850451 
L 236.078182 -176.171286 
L 240.643636 -174.496026 
L 245.209091 -172.708061 
L 249.774545 -171.020991 
L 254.34 -169.252149 
L 258.905455 -167.445729 
L 263.470909 -165.818018 
L 268.036364 -164.227778 
L 272.601818 -162.20433 
L 277.167273 -160.571206 
L 281.732727 -158.719078 
L 286.298182 -156.838431 
L 290.863636 -154.990619 
L 295.429091 -153.071128 
L 299.994545 -151.292802 
L 304.56 -149.432587 
L 309.125455 -147.388076 
L 313.690909 -145.46182 
L 318.256364 -143.424835 
L 322.821818 -141.465392 
L 327.387273 -139.51199 
L 331.952727 -137.475837 
L 336.518182 -135.439684 
L 341.083636 -133.404367 
L 345.649091 -131.369941 
L 350.214545 -129.335515 
L 354.78 -127.324606 
L 359.345455 -125.331807 
L 363.910909 -123.343072 
L 368.476364 -121.377364 
L 373.041818 -119.398761 
L 377.607273 -117.420157 
L 382.172727 -115.441554 
L 386.738182 -113.463052 
L 391.303636 -111.428872 
L 395.869091 -109.347844 
L 400.434545 -107.269031 
L 405 -105.190218 
L 409.565455 -103.135815 
L 414.130909 -101.18418 
L 418.696364 -99.232545 
L 423.261818 -97.227243 
L 427.827273 -95.185411 
L 432.392727 -93.205389 
L 436.958182 -91.307811 
L 441.523636 -89.340125 
L 446.089091 -87.269591 
L 450.654545 -85.199057 
L 455.22 -83.128524 
L 459.785455 -81.05799 
L 464.350909 -78.987457 
L 468.916364 -76.916923 
L 473.481818 -74.84639 
L 478.047273 -72.775856 
L 482.612727 -70.705323 
L 487.178182 -68.634789 
L 491.743636 -66.580431 
L 496.309091 -64.567856 
L 500.874545 -62.521041 
L 505.44 -60.439091 
L 505.44 -90.313639 
L 505.44 -90.313639 
L 500.874545 -91.891955 
L 496.309091 -93.460404 
L 491.743636 -95.020535 
L 487.178182 -96.580667 
L 482.612727 -98.140799 
L 478.047273 -99.731241 
L 473.481818 -101.345206 
L 468.916364 -102.959172 
L 464.350909 -104.563246 
L 459.785455 -106.171824 
L 455.22 -107.758131 
L 450.654545 -109.343147 
L 446.089091 -110.916294 
L 441.523636 -112.567486 
L 436.958182 -114.102163 
L 432.392727 -115.707976 
L 427.827273 -117.330476 
L 423.261818 -118.937422 
L 418.696364 -120.59463 
L 414.130909 -122.223044 
L 409.565455 -123.848753 
L 405 -125.425078 
L 400.434545 -127.096228 
L 395.869091 -128.768857 
L 391.303636 -130.408725 
L 386.738182 -132.024809 
L 382.172727 -133.642921 
L 377.607273 -135.269386 
L 373.041818 -136.917378 
L 368.476364 -138.66488 
L 363.910909 -140.280333 
L 359.345455 -141.945759 
L 354.78 -143.654119 
L 350.214545 -145.357208 
L 345.649091 -147.050123 
L 341.083636 -148.74032 
L 336.518182 -150.367511 
L 331.952727 -152.114663 
L 327.387273 -153.802048 
L 322.821818 -155.472673 
L 318.256364 -157.196514 
L 313.690909 -158.894906 
L 309.125455 -160.619383 
L 304.56 -162.357143 
L 299.994545 -164.119648 
L 295.429091 -165.819304 
L 290.863636 -167.597054 
L 286.298182 -169.387179 
L 281.732727 -171.138637 
L 277.167273 -172.923328 
L 272.601818 -174.642402 
L 268.036364 -176.406347 
L 263.470909 -178.17966 
L 258.905455 -179.954583 
L 254.34 -181.726538 
L 249.774545 -183.44915 
L 245.209091 -185.226672 
L 240.643636 -187.046658 
L 236.078182 -188.788232 
L 231.512727 -190.575466 
L 226.947273 -192.332134 
L 222.381818 -194.085349 
L 217.816364 -195.914105 
L 213.250909 -197.727428 
L 208.685455 -199.549979 
L 204.12 -201.399295 
L 199.554545 -203.230061 
L 194.989091 -205.008027 
L 190.423636 -206.786903 
L 185.858182 -208.66086 
L 181.292727 -210.495637 
L 176.727273 -212.384661 
L 172.161818 -214.18945 
L 167.596364 -216.005344 
L 163.030909 -217.904073 
L 158.465455 -219.839679 
L 153.9 -221.769761 
L 149.334545 -223.624101 
L 144.769091 -225.475023 
L 140.203636 -227.325472 
L 135.638182 -229.193916 
L 131.072727 -231.149934 
L 126.507273 -233.054373 
L 121.941818 -235.058018 
L 117.376364 -236.995024 
L 112.810909 -238.873418 
L 108.245455 -240.80976 
L 103.68 -242.877964 
L 99.114545 -244.746852 
L 94.549091 -246.757208 
L 89.983636 -248.839781 
L 85.418182 -250.900102 
L 80.852727 -252.915613 
L 76.287273 -254.949637 
L 71.721818 -256.897853 
L 67.156364 -258.871496 
L 62.590909 -260.790355 
L 58.025455 -262.805676 
L 53.46 -264.820909 
z
" style="stroke: #ffffff; stroke-opacity: 0.15"/>
    </defs>
    <g clip-path="url(#p9501724b67)">
     <use xlink:href="#m5d91158254" x="0" y="288" style="fill: #4c72b0; fill-opacity: 0.15; stroke: #ffffff; stroke-opacity: 0.15"/>
    </g>
   </g>
   <g id="line2d_16">
    <path d="M 53.46 33.72509 
L 58.025455 35.491703 
L 62.590909 37.258316 
L 67.156364 39.02493 
L 71.721818 40.791543 
L 76.287273 42.558156 
L 80.852727 44.324769 
L 85.418182 46.091382 
L 89.983636 47.857995 
L 94.549091 49.624609 
L 99.114545 51.391222 
L 103.68 53.157835 
L 108.245455 54.924448 
L 112.810909 56.691061 
L 117.376364 58.457674 
L 121.941818 60.224288 
L 126.507273 61.990901 
L 131.072727 63.757514 
L 135.638182 65.524127 
L 140.203636 67.29074 
L 144.769091 69.057353 
L 149.334545 70.823967 
L 153.9 72.59058 
L 158.465455 74.357193 
L 163.030909 76.123806 
L 167.596364 77.890419 
L 172.161818 79.657032 
L 176.727273 81.423646 
L 181.292727 83.190259 
L 185.858182 84.956872 
L 190.423636 86.723485 
L 194.989091 88.490098 
L 199.554545 90.256711 
L 204.12 92.023324 
L 208.685455 93.789938 
L 213.250909 95.556551 
L 217.816364 97.323164 
L 222.381818 99.089777 
L 226.947273 100.85639 
L 231.512727 102.623003 
L 236.078182 104.389617 
L 240.643636 106.15623 
L 245.209091 107.922843 
L 249.774545 109.689456 
L 254.34 111.456069 
L 258.905455 113.222682 
L 263.470909 114.989296 
L 268.036364 116.755909 
L 272.601818 118.522522 
L 277.167273 120.289135 
L 281.732727 122.055748 
L 286.298182 123.822361 
L 290.863636 125.588975 
L 295.429091 127.355588 
L 299.994545 129.122201 
L 304.56 130.888814 
L 309.125455 132.655427 
L 313.690909 134.42204 
L 318.256364 136.188654 
L 322.821818 137.955267 
L 327.387273 139.72188 
L 331.952727 141.488493 
L 336.518182 143.255106 
L 341.083636 145.021719 
L 345.649091 146.788333 
L 350.214545 148.554946 
L 354.78 150.321559 
L 359.345455 152.088172 
L 363.910909 153.854785 
L 368.476364 155.621398 
L 373.041818 157.388012 
L 377.607273 159.154625 
L 382.172727 160.921238 
L 386.738182 162.687851 
L 391.303636 164.454464 
L 395.869091 166.221077 
L 400.434545 167.987691 
L 405 169.754304 
L 409.565455 171.520917 
L 414.130909 173.28753 
L 418.696364 175.054143 
L 423.261818 176.820756 
L 427.827273 178.587369 
L 432.392727 180.353983 
L 436.958182 182.120596 
L 441.523636 183.887209 
L 446.089091 185.653822 
L 450.654545 187.420435 
L 455.22 189.187048 
L 459.785455 190.953662 
L 464.350909 192.720275 
L 468.916364 194.486888 
L 473.481818 196.253501 
L 478.047273 198.020114 
L 482.612727 199.786727 
L 487.178182 201.553341 
L 491.743636 203.319954 
L 496.309091 205.086567 
L 500.874545 206.85318 
L 505.44 208.619793 
" clip-path="url(#p9501724b67)" style="fill: none; stroke: #4c72b0; stroke-width: 2.25; stroke-linecap: round"/>
   </g>
   <g id="patch_3">
    <path d="M 53.46 237.78 
L 53.46 12.96 
" style="fill: none; stroke: #262626; stroke-width: 1.25; stroke-linejoin: miter; stroke-linecap: square"/>
   </g>
   <g id="patch_4">
    <path d="M 53.46 237.78 
L 505.44 237.78 
" style="fill: none; stroke: #262626; stroke-width: 1.25; stroke-linejoin: miter; stroke-linecap: square"/>
   </g>
  </g>
 </g>
 <defs>
  <clipPath id="p9501724b67">
   <rect x="53.46" y="12.96" width="451.98" height="224.82"/>
  </clipPath>
 </defs>
</svg>
